P2
12 14
15
0  0  0  0  0  0  0  0  0  0  0  0
0  5  5  5  5  0  0  7  7  7  7  0
0  5  0  0  0  0  0  7  0  0  0  0
0  5  5  5  0  0  0  7  7  7  0  0
0  5  0  0  0  0  0  7  0  0  0  0
0  5  0  0  0  0  0  7  7  7  7  0
0  0  0  0  0  0  0  0  0  0  0  0
0  0  0  0  0  0  0  0  0  0  0  0
0 11 11 11 11  0  0 15 15 15 15  0
0 11  0  0  0  0  0 15  0  0 15  0
0 11 11 11  0  0  0 15 15 15 15  0
0 11  0  0  0  0  0 15  0  0  0  0
0 11 11 11 11  0  0 15  0  0  0  0
0  0  0  0  0  0  0  0  0  0  0  0